<svg xmlns="http://www.w3.org/2000/svg" viewBox="0 0 714 729" fill="none">
<defs>
<linearGradient id="brandFish" gradientUnits="userSpaceOnUse" x1="70" y1="70" x2="650" y2="660">
<stop offset="0" stop-color="#1488C7"/>
<stop offset="0.55" stop-color="#16A6BD"/>
<stop offset="1" stop-color="#1BB89A"/>
</linearGradient>
</defs>
<path fill="url(#brandFish)" opacity="1.000000" stroke="none" 
	d="
M192.129333,321.326385 
	C186.519714,340.866089 183.608078,360.387207 183.901627,380.331635 
	C184.197586,400.439423 186.819016,420.312134 194.141846,439.045074 
	C201.336823,457.450928 210.034546,475.269348 218.434860,494.159668 
	C209.314346,491.577240 202.197357,487.462769 197.452209,479.657532 
	C184.498093,458.349365 175.940536,435.343658 172.040131,410.791626 
	C164.995865,366.449982 170.871811,323.813995 191.767059,283.886658 
	C219.877579,230.172134 263.782654,196.027802 323.273773,184.340881 
	C382.327209,172.739929 435.173553,188.566910 480.995941,227.049393 
	C514.175354,254.914108 536.367249,290.102386 544.497498,332.919769 
	C558.461243,406.458313 539.783752,470.321075 484.215363,521.538574 
	C454.927185,548.533569 419.583099,564.192200 379.932220,568.768555 
	C367.176544,570.240784 353.838715,570.452698 341.220062,568.424316 
	C323.186707,565.525513 307.816315,546.102356 305.654633,525.952759 
	C304.646210,516.552856 304.700500,507.002747 304.854492,497.530182 
	C304.926208,493.118408 303.872375,490.782593 299.603333,488.841339 
	C281.927338,480.803589 267.268219,469.071136 257.253540,452.101318 
	C256.577118,450.955109 255.962677,449.770172 255.371933,448.577240 
	C255.247467,448.325928 255.353836,447.960297 255.353836,446.814606 
	C273.164825,458.653442 287.977325,474.141785 306.355103,482.442108 
	C326.044922,458.638916 345.407013,435.231903 365.123230,411.396820 
	C362.542236,410.436157 359.794647,409.460999 357.082275,408.396179 
	C339.891266,401.647430 321.502930,396.934723 305.762421,387.707275 
	C268.014008,365.578247 244.252167,333.060883 241.941116,287.859589 
	C241.000351,269.459442 248.037979,261.082001 266.123657,256.717285 
	C290.437347,250.849487 314.872925,251.000153 338.619476,258.729218 
	C358.997864,265.362000 379.629364,268.184845 400.916687,268.844086 
	C409.156982,269.099243 417.821014,271.289429 425.362122,274.671478 
	C435.476501,279.207581 437.299927,288.333008 430.740723,297.410553 
	C426.981842,302.612701 421.772095,306.746979 417.458435,311.578888 
	C416.039490,313.168335 414.324646,315.561340 414.535553,317.379150 
	C418.097809,348.082611 410.031158,376.158264 395.767395,402.910431 
	C395.312103,403.764313 395.028351,404.709625 394.530426,405.945496 
	C401.379364,410.565887 408.180298,415.014099 414.835114,419.671204 
	C431.057800,431.023895 446.115326,443.637878 456.111206,461.118896 
	C459.696503,467.388977 462.295044,474.223328 465.789490,481.761322 
	C462.666840,481.994507 460.933075,482.192841 459.195038,482.243317 
	C435.650299,482.927307 412.768616,478.736481 390.180939,472.622192 
	C386.497864,471.625214 383.708832,471.961151 380.535553,474.313904 
	C365.191528,485.690338 347.773682,491.939240 328.870178,494.016907 
	C325.387421,494.399658 324.036255,495.710449 323.633789,499.142242 
	C322.494415,508.858429 320.060303,518.453918 323.213654,528.298462 
	C328.350525,544.335388 341.923889,555.394470 358.636200,557.215576 
	C380.784149,559.628906 401.449799,553.662842 421.105835,544.866211 
	C480.669769,518.209534 516.313843,471.777985 529.059753,408.297607 
	C547.020569,318.844513 489.190033,227.534485 403.226715,202.020340 
	C330.768768,180.514648 249.414902,209.023666 209.020645,282.041016 
	C202.218262,294.337158 197.780991,307.941681 192.129333,321.326385 
M385.218933,379.615112 
	C387.657379,372.894440 390.565735,366.302460 392.448273,359.429474 
	C398.709290,336.571564 395.053101,316.002686 376.499359,299.896881 
	C370.145477,294.381317 363.014252,289.484436 355.582764,285.539520 
	C334.312256,274.248413 311.242828,271.116364 287.409088,271.569580 
	C278.433075,271.740265 270.306946,273.851990 262.830780,278.574860 
	C261.513977,279.406708 260.102051,281.152405 259.972778,282.587646 
	C259.661926,286.038788 259.759430,289.604187 260.264557,293.039307 
	C265.053375,325.607300 283.446655,349.533905 309.267700,368.268707 
	C328.497742,382.221375 351.110474,389.331757 373.050140,397.642975 
	C374.130768,398.052338 376.733337,396.731873 377.405365,395.532379 
	C380.167480,390.602264 382.456726,385.407196 385.218933,379.615112 
M402.678375,426.760284 
	C398.614532,424.845154 394.465759,423.088257 390.513214,420.965820 
	C387.234833,419.205322 385.044159,420.113678 382.791321,422.750610 
	C366.673218,441.617188 350.468231,460.409515 334.325958,479.255493 
	C333.510040,480.208099 333.018372,481.438385 332.268677,482.722809 
	C333.087067,482.961884 333.540863,483.239349 333.954285,483.188477 
	C335.269287,483.026611 336.584137,482.804871 337.872681,482.496185 
	C354.126312,478.602203 368.165375,470.524689 380.550659,459.505005 
	C383.144257,457.197388 385.334839,456.892883 388.606415,457.913818 
	C396.860107,460.489502 405.185242,462.992706 413.647888,464.702759 
	C424.141907,466.823242 434.803253,468.115479 445.392334,469.765533 
	C445.581512,469.250549 445.770691,468.735596 445.959869,468.220642 
	C433.998260,452.229614 420.864288,437.430817 402.678375,426.760284 
M406.521912,303.936157 
	C407.637604,303.835785 409.125763,304.163422 409.810333,303.567688 
	C415.557068,298.566437 421.156433,293.395844 426.800201,288.276245 
	C426.579834,287.869751 426.359467,287.463287 426.139099,287.056793 
	C415.337555,287.056793 404.536011,287.056793 392.927826,287.056793 
	C397.604889,292.876099 401.836243,298.140808 406.521912,303.936157 
z"/>
<path fill="url(#brandFish)" opacity="1.000000" stroke="none" 
	d="
M34.136726,378.637329 
	C27.912203,377.906372 22.147772,377.049042 16.353022,376.530518 
	C12.928579,376.224091 11.856873,374.702698 12.085070,371.368988 
	C12.517043,365.058228 12.731084,358.726135 12.804363,352.400238 
	C12.835611,349.702667 13.774592,348.643341 16.497002,348.334534 
	C33.180611,346.442139 49.845707,344.386719 66.518097,342.394989 
	C68.603912,342.145844 70.696312,341.951752 72.785660,341.732117 
	C72.924225,341.161591 73.062790,340.591064 73.201363,340.020538 
	C56.012756,333.997314 38.824150,327.974091 20.985550,321.723114 
	C22.955029,311.698334 24.919977,301.696625 26.853794,291.853363 
	C66.353737,296.541534 105.048759,301.134186 144.984848,305.874146 
	C141.531281,312.804810 138.953857,318.512451 135.805099,323.885254 
	C135.099091,325.089905 132.357361,325.709961 130.613617,325.603516 
	C114.015594,324.589935 97.431969,323.343079 80.841568,322.201538 
	C69.299637,321.407349 57.753593,320.673004 46.209389,319.911926 
	C46.061512,320.515472 45.913635,321.118988 45.765755,321.722504 
	C47.866734,322.705750 49.894592,323.909241 52.081009,324.635132 
	C63.136700,328.305817 74.256065,331.784851 85.309380,335.462524 
	C95.135918,338.732025 104.432610,343.070465 113.128448,349.932587 
	C103.851051,357.993103 93.270760,362.502136 81.859436,364.914246 
	C70.543449,367.306152 59.068600,368.946503 47.553539,372.073608 
	C54.589767,373.005737 61.610825,374.080566 68.666412,374.830444 
	C75.944725,375.604004 83.267822,375.950897 90.550697,376.688171 
	C97.829987,377.425049 105.129654,378.144012 112.335701,379.369019 
	C119.429497,380.574921 126.417030,382.405914 133.364105,384.634033 
	C125.016777,388.092590 116.411911,388.273529 107.918320,387.347321 
	C83.448532,384.678925 59.025478,381.582001 34.136726,378.637329 
z"/>
<path fill="url(#brandFish)" opacity="1.000000" stroke="none" 
	d="
M198.630402,110.352905 
	C214.274139,128.997650 229.692963,147.363892 245.094772,165.744400 
	C246.464737,167.379318 247.723938,169.107040 249.612305,171.534241 
	C244.215942,174.607727 239.261261,177.518280 234.218109,180.266418 
	C231.500473,181.747284 229.228088,180.962692 227.182083,178.614166 
	C215.153168,164.806656 203.076492,151.040436 190.960709,137.309021 
	C185.122086,130.691818 179.209915,124.137527 173.218018,117.659294 
	C172.027222,116.371849 170.321533,115.560661 168.486389,114.950180 
	C177.215729,137.996445 194.041504,157.199799 198.208725,182.782181 
	C173.550003,181.158127 156.197372,165.242996 137.109497,153.117371 
	C136.787766,153.600861 136.466034,154.084351 136.144302,154.567841 
	C140.938095,160.358521 145.617615,166.248657 150.551666,171.917267 
	C158.534607,181.088654 166.707932,190.094040 174.756973,199.208282 
	C181.134125,206.429367 185.154541,214.903717 187.295624,224.663559 
	C185.976974,223.400314 184.612549,222.181198 183.346436,220.867325 
	C158.566177,195.152451 136.432037,167.224960 114.887711,138.812424 
	C110.229309,132.668961 110.823990,124.754852 115.979721,119.202042 
	C120.979126,113.817596 127.652122,112.686180 134.354721,117.464638 
	C147.353699,126.731964 159.907227,136.623978 172.652100,146.248215 
	C173.492371,146.882736 174.389679,147.441727 176.129562,147.433044 
	C175.212357,145.426697 174.347763,143.394302 173.369476,141.418182 
	C166.590561,127.724655 159.818710,114.027420 152.966629,100.370491 
	C151.621429,97.689369 152.103043,95.681946 154.410461,93.909256 
	C159.948990,89.654236 165.514664,85.431831 170.965134,81.066109 
	C173.498123,79.037239 174.814194,80.608513 176.240646,82.391960 
	C183.624100,91.623375 191.013580,100.849960 198.630402,110.352905 
z"/>
<path fill="url(#brandFish)" opacity="1.000000" stroke="none" 
	d="
M162.748749,262.675842 
	C159.624390,267.630219 156.451141,272.127563 153.753632,276.894165 
	C150.828156,282.063538 146.468140,282.833282 141.072189,282.560181 
	C122.622566,281.626495 105.885841,275.511627 90.550957,265.664276 
	C81.188622,259.652222 72.288628,252.873810 63.489361,246.042389 
	C50.936443,236.296738 49.620094,222.579117 51.003113,208.120239 
	C51.073570,207.383636 51.706055,206.665817 52.179401,206.013657 
	C52.565617,205.481537 53.184803,205.117371 53.565289,204.582413 
	C65.498550,187.805130 81.668045,188.443695 98.926620,193.518646 
	C112.916138,197.632278 125.204391,204.961914 135.948013,214.561493 
	C146.236084,223.754013 155.865082,233.696091 165.543381,243.544922 
	C166.843628,244.868088 167.532913,247.748535 167.123535,249.602829 
	C166.164642,253.946106 164.367294,258.104279 162.748749,262.675842 
M87.526276,207.868362 
	C81.912117,206.538696 76.359390,204.650604 70.667839,204.024536 
	C63.966751,203.287430 61.267227,206.297699 60.933899,213.140060 
	C60.517956,221.678284 66.570328,226.048187 72.519470,229.884674 
	C84.242302,237.444443 96.165253,244.746048 108.386734,251.460373 
	C115.472717,255.353333 123.165466,258.286530 130.831772,260.938873 
	C138.939377,263.743896 147.419067,265.002350 157.816391,264.445587 
	C153.140472,258.349884 149.898163,252.857620 145.477463,248.584442 
	C128.509521,232.182571 108.752960,219.597198 87.526276,207.868362 
z"/>
<path fill="url(#brandFish)" opacity="1.000000" stroke="none" 
	d="
M187.300644,581.300903 
	C192.919052,575.141357 198.285950,569.230225 204.229660,562.683838 
	C208.849197,567.959900 212.159500,571.740601 215.942139,576.060852 
	C191.394119,600.301392 167.142914,624.248840 142.340256,648.740784 
	C138.699310,643.742554 135.494919,639.741638 132.817459,635.414673 
	C132.058517,634.188171 132.567581,631.948669 132.950531,630.278137 
	C139.099670,603.452881 145.325363,576.645203 151.515030,549.829163 
	C151.695801,549.046021 151.673416,548.216064 151.871536,546.003357 
	C133.313843,564.319275 115.598335,581.804016 97.260880,599.902588 
	C94.162308,596.087402 91.177727,592.619263 88.505447,588.925232 
	C88.042786,588.285706 88.505287,586.283264 89.209534,585.593689 
	C112.422813,562.863831 135.717575,540.217163 159.006439,517.564575 
	C159.115921,517.458069 159.312561,517.441101 159.917648,517.212891 
	C163.232910,519.798218 166.920792,522.358704 170.162369,525.395630 
	C171.126343,526.298828 171.382339,528.664917 171.041321,530.148987 
	C164.602554,558.169067 158.024948,586.157166 151.479248,614.152649 
	C151.333725,614.775085 151.223068,615.405701 150.831604,617.338989 
	C163.483475,604.836609 175.266312,593.192993 187.300644,581.300903 
z"/>
<path fill="url(#brandFish)" opacity="1.000000" stroke="none" 
	d="
M577.679932,264.742157 
	C610.703247,253.260712 643.352417,241.883881 676.851318,230.210922 
	C676.851318,237.293427 677.101257,243.196182 676.650146,249.044891 
	C676.554688,250.283157 674.052979,251.688461 672.395081,252.398300 
	C657.713501,258.684387 642.967529,264.819946 628.255066,271.034302 
	C626.597900,271.734253 625.030457,272.646790 622.865723,273.741882 
	C626.459595,280.097321 629.706238,286.234863 633.440125,292.060059 
	C634.078369,293.055695 636.949036,293.305908 638.534729,292.902740 
	C654.662415,288.802094 670.735229,284.485291 686.830627,280.256866 
	C688.738647,279.755646 690.690247,279.420471 693.352539,280.031921 
	C690.111755,282.664612 686.970703,285.432648 683.612732,287.906311 
	C669.783875,298.093445 654.049988,304.486145 638.146606,310.527954 
	C628.342651,314.252502 618.518799,317.928528 608.769104,321.790863 
	C597.391541,326.298096 585.799011,326.300293 572.753357,323.901642 
	C587.897949,311.452667 605.315369,306.017670 622.860840,299.562073 
	C620.481812,291.892609 618.191101,284.507690 615.725891,276.560303 
	C607.290405,279.392334 599.155762,282.109741 591.030884,284.856140 
	C585.986145,286.561340 580.993896,288.437592 575.892456,289.947784 
	C574.660828,290.312378 572.240967,289.993896 571.810608,289.203613 
	C568.567932,283.249451 565.685974,277.098846 562.446899,270.512512 
	C567.757568,268.487518 572.531677,266.667145 577.679932,264.742157 
z"/>
<path fill="url(#brandFish)" opacity="1.000000" stroke="none" 
	d="
M556.834717,641.520935 
	C551.983215,662.057190 541.362122,677.139832 520.743042,683.445251 
	C490.980194,692.546570 460.230347,675.192505 453.338654,645.500916 
	C446.096466,614.299194 465.974945,583.155579 496.394531,578.289551 
	C531.533081,572.668518 556.697754,601.814514 557.172852,628.187439 
	C557.250305,632.488342 557.015137,636.794922 556.834717,641.520935 
M474.331238,654.086853 
	C489.109039,673.808350 514.678650,676.637207 531.798523,660.444580 
	C546.031189,646.982788 546.481506,623.359375 532.818420,606.942139 
	C517.702332,588.778992 494.454071,587.659912 477.782776,604.302612 
	C466.685059,615.381287 462.106964,635.549500 474.331238,654.086853 
z"/>
<path fill="url(#brandFish)" opacity="1.000000" stroke="none" 
	d="
M283.646851,617.368042 
	C299.014648,642.814514 289.208893,680.135803 263.642670,694.488220 
	C253.789886,700.019409 242.976334,700.657776 232.664627,697.676270 
	C217.938614,693.418274 203.684280,687.529175 188.725281,682.155945 
	C190.107742,678.548218 190.922226,676.258728 191.853287,674.017761 
	C203.266388,646.547058 214.790588,619.121765 226.030823,591.580627 
	C227.931244,586.924194 230.288773,586.429504 234.723129,587.778381 
	C249.179825,592.175842 262.931793,597.937073 274.708405,607.582642 
	C278.001343,610.279724 280.555359,613.878967 283.646851,617.368042 
M275.453308,650.694336 
	C276.702087,642.209656 275.724823,634.211060 271.065613,626.727112 
	C264.299255,615.858521 253.871964,610.486938 242.281738,606.558838 
	C238.750443,605.362000 236.884628,606.154114 235.446579,609.636536 
	C228.084518,627.464478 220.547318,645.220154 213.077927,663.003784 
	C211.625381,666.462158 210.202164,669.932800 208.522476,673.983704 
	C216.844467,677.033142 224.487854,680.332642 232.422440,682.623596 
	C244.113068,685.999023 254.750427,683.981384 263.521332,674.777344 
	C269.811340,668.176636 273.635986,660.432190 275.453308,650.694336 
z"/>
<path fill="url(#brandFish)" opacity="1.000000" stroke="none" 
	d="
M416.563293,152.507874 
	C410.081207,148.108536 406.951385,141.965790 405.516510,134.904221 
	C404.375244,129.287582 403.629059,123.590691 403.550659,117.508339 
	C408.489258,123.470673 413.418549,129.440781 418.373352,135.389633 
	C419.545227,136.796646 420.760223,138.173218 422.028412,139.493607 
	C427.625397,145.320831 434.598541,144.280289 438.182343,136.868103 
	C441.071930,130.891830 442.548065,124.432076 440.578766,117.953506 
	C437.924103,109.220375 434.595947,100.693108 431.608704,92.059555 
	C429.381378,85.622391 427.048309,79.212814 425.103851,72.689148 
	C422.858582,65.156288 424.075348,57.728081 429.198029,51.980839 
	C435.015564,45.453945 441.876129,39.846432 448.412811,33.983681 
	C449.245209,33.237144 451.008942,32.850040 452.086517,33.165791 
	C459.231934,35.259602 466.363220,37.432861 473.388214,39.896389 
	C478.623840,41.732422 480.896271,45.897579 480.352264,51.290661 
	C479.752991,57.231129 478.879364,63.157169 477.763092,69.020546 
	C477.551300,70.133148 475.753845,71.513382 474.503204,71.737091 
	C472.090759,72.168633 469.546417,71.862984 466.249207,71.862984 
	C466.666687,62.557316 467.078461,53.378674 467.523468,43.459648 
	C459.718719,45.302956 453.458710,48.493279 448.295349,53.544540 
	C447.327271,54.491623 447.210846,57.110538 447.709747,58.626053 
	C450.976990,68.551659 454.216614,78.506577 458.056763,88.218010 
	C462.340759,99.051888 467.558075,109.520813 467.470154,121.593895 
	C467.341614,139.243576 454.607788,154.411469 437.244537,157.428299 
	C429.768860,158.727158 423.074646,156.783249 416.563293,152.507874 
z"/>
<path fill="url(#brandFish)" opacity="1.000000" stroke="none" 
	d="
M323.555756,44.624336 
	C321.164215,48.938236 318.838257,52.882751 315.825958,57.991230 
	C312.953186,50.703709 310.632385,44.742012 308.253876,38.803444 
	C305.842407,32.782509 300.397125,31.772530 296.269470,37.012650 
	C293.108337,41.025738 290.803101,45.713013 287.764709,50.676186 
	C295.952026,57.648167 304.024017,64.524361 312.098816,71.397240 
	C318.056458,76.468079 324.231171,81.306999 329.932098,86.651428 
	C341.032227,97.057426 345.008087,109.819977 341.581726,124.771858 
	C339.950989,131.888153 336.126770,137.610397 330.453094,142.054459 
	C327.184601,144.614563 323.326630,146.477997 320.281006,149.254944 
	C313.952545,155.025101 308.235901,153.739151 301.661743,149.440979 
	C293.132416,143.864517 286.088837,137.144516 280.170959,127.032486 
	C293.438690,131.375839 305.451813,135.308472 318.182465,139.475998 
	C318.603394,126.793312 320.902405,114.552826 310.230286,105.092239 
	C302.509430,98.247887 294.837555,91.346626 287.226349,84.380577 
	C271.071686,69.595276 269.195251,48.402859 282.557892,30.801737 
	C283.546265,29.499844 285.438049,28.521427 287.082764,28.141764 
	C294.982330,26.318249 302.916473,24.609425 310.900818,23.218477 
	C312.451904,22.948269 315.293671,23.807468 315.813568,24.938988 
	C318.709961,31.242649 321.074738,37.790565 323.555756,44.624336 
z"/>
<path fill="url(#brandFish)" opacity="1.000000" stroke="none" 
	d="
M633.629883,174.620239 
	C634.492676,173.410477 635.124634,172.471848 636.022827,171.137726 
	C628.703735,169.349426 621.784363,167.678528 614.876526,165.961380 
	C612.096863,165.270416 610.677063,166.032745 609.993835,169.081833 
	C606.479126,184.767456 602.627869,200.377823 599.133911,216.067871 
	C595.479248,232.479202 587.077271,244.417908 569.787476,248.289505 
	C551.199707,252.451767 532.615601,239.827042 530.912170,221.896149 
	C530.741150,220.096359 530.548523,218.098511 531.126953,216.461441 
	C534.001465,208.326111 537.130981,200.280869 540.170654,192.203888 
	C540.791382,192.376846 541.412109,192.549805 542.032837,192.722763 
	C542.427856,199.112152 542.739746,205.508057 543.241455,211.889038 
	C543.734619,218.160416 544.420593,224.416626 545.017944,230.638245 
	C558.206970,230.511032 568.340576,224.403397 572.318298,212.492294 
	C576.886902,198.812012 580.699646,184.809906 583.727966,170.708618 
	C585.806274,161.031113 590.843811,156.033401 600.365723,154.812683 
	C608.752075,153.737549 617.104004,152.392883 625.492676,151.338135 
	C626.611755,151.197418 628.344177,151.694412 628.965881,152.519180 
	C633.268433,158.227097 637.482422,164.012192 641.477173,169.939362 
	C648.691528,180.643570 638.803589,194.612518 629.167297,195.593826 
	C625.263672,195.991348 621.353760,196.327255 616.091675,196.817429 
	C622.350647,188.888168 627.874817,181.889771 633.629883,174.620239 
z"/>
<path fill="url(#brandFish)" opacity="1.000000" stroke="none" 
	d="
M495.262878,179.159515 
	C495.736237,181.739258 496.079224,185.675186 496.704437,185.720535 
	C501.298309,186.053818 506.480103,188.913010 510.469147,184.725937 
	C517.918518,176.906769 525.604065,169.207138 532.162415,160.667572 
	C544.020020,145.227859 555.032715,129.141968 566.598816,113.473915 
	C569.621765,109.378876 573.383667,105.829285 576.806152,102.029167 
	C577.265564,102.283333 577.724976,102.537506 578.184448,102.791679 
	C576.018250,108.377129 574.479797,114.314369 571.579895,119.488609 
	C557.201172,145.144363 539.182251,168.195282 520.222534,190.592407 
	C514.299561,197.589233 508.071716,198.306000 500.033844,195.243332 
	C487.134979,190.328522 478.114899,182.359177 475.675140,168.129700 
	C474.201202,159.533325 477.491547,152.336334 482.137390,145.719589 
	C492.563904,130.869644 503.135590,116.113419 514.000610,101.582573 
	C520.671936,92.660347 528.054260,84.272453 534.986084,75.540474 
	C536.910278,73.116570 538.742493,72.965157 541.336975,74.323616 
	C545.734009,76.625870 550.265259,78.671799 555.299011,81.094467 
	C552.295898,85.877365 549.777405,90.514725 546.673340,94.719780 
	C535.408203,109.980583 524.052612,125.177490 512.525024,140.240707 
	C503.721527,151.744339 495.903534,163.592957 495.262878,179.159515 
z"/>
<path fill="url(#brandFish)" opacity="1.000000" stroke="none" 
	d="
M133.333771,478.231689 
	C108.930550,501.807922 85.142601,525.527466 58.580780,547.143066 
	C57.314346,541.993469 55.983730,537.735901 55.344955,533.376953 
	C55.112938,531.793701 56.087818,529.529175 57.274117,528.328369 
	C62.892319,522.641113 68.895012,517.331604 74.460732,511.596405 
	C75.585518,510.437408 76.231117,507.730713 75.702629,506.228271 
	C72.617905,497.458740 69.016426,488.872467 65.818298,480.140503 
	C64.830887,477.444550 63.287445,476.783051 60.613319,476.795532 
	C52.950752,476.831238 45.276878,476.761627 37.631088,476.322174 
	C35.881210,476.221588 33.602764,474.871735 32.647774,473.397278 
	C30.057627,469.398163 28.047356,465.023468 25.300777,459.842468 
	C63.621616,459.842468 100.970657,459.842468 138.674591,459.842468 
	C138.066315,466.081390 137.613083,472.482849 133.333771,478.231689 
M108.468567,473.343048 
	C99.063156,473.739319 89.657738,474.135590 79.462006,474.565125 
	C82.406593,482.951843 85.108833,490.648315 88.074112,499.093994 
	C98.466171,490.441193 108.170990,482.360657 117.875809,474.280090 
	C117.670486,473.965607 117.465172,473.651123 117.259857,473.336639 
	C114.646133,473.336639 112.032417,473.336639 108.468567,473.343048 
z"/>
<path fill="url(#brandFish)" opacity="1.000000" stroke="none" 
	d="
M637.727661,499.248657 
	C617.262695,492.223206 597.189270,485.287781 576.190063,478.032501 
	C582.022400,461.579346 587.129639,445.608124 593.599365,430.209320 
	C594.929810,427.042450 601.349182,426.013672 605.422974,423.999420 
	C605.981384,424.520325 606.539856,425.041229 607.098267,425.562134 
	C603.511475,439.242615 599.924622,452.923126 596.159119,467.285156 
	C604.676208,470.478638 613.320312,473.719757 622.505798,477.163879 
	C626.797913,464.131287 631.019531,451.312439 635.421509,437.946106 
	C639.310120,439.675140 642.930054,440.933319 646.111694,442.900452 
	C647.148682,443.541626 647.757446,446.242188 647.345154,447.642639 
	C644.302979,457.975922 640.945740,468.216339 637.711914,478.493622 
	C637.425354,479.404205 637.311218,480.369080 637.022400,481.766602 
	C646.388367,484.481567 655.567200,487.142273 665.240662,489.946381 
	C668.308472,480.138672 671.198669,470.845825 674.123535,461.563904 
	C676.782471,453.126038 676.800720,453.119080 685.427063,454.302429 
	C686.532898,454.454163 687.610535,454.811737 689.755981,455.327484 
	C684.791260,473.580658 679.905823,491.542206 674.775452,510.404236 
	C662.134033,506.588165 650.126587,502.963440 637.727661,499.248657 
z"/>
<path fill="url(#brandFish)" opacity="1.000000" stroke="none" 
	d="
M426.719147,667.707764 
	C420.274414,676.446594 410.645569,678.369568 401.409851,681.010681 
	C397.443481,682.144897 391.913452,681.898438 389.865631,684.478882 
	C387.905945,686.948303 389.356598,692.282959 389.633148,696.336182 
	C390.275391,705.748901 391.113464,715.148193 391.887543,724.743347 
	C390.272797,724.943298 389.319885,725.121338 388.360352,725.170898 
	C377.597412,725.727478 377.366486,725.755493 375.819031,715.036255 
	C371.546387,685.439026 367.482239,655.811646 363.350464,626.194153 
	C363.194092,625.073181 363.192291,623.930603 363.030396,621.446960 
	C377.159027,620.048767 391.111542,617.818237 405.101227,617.553345 
	C416.213745,617.342957 424.593933,623.782349 429.321625,633.986450 
	C434.637695,645.460510 434.782776,656.778809 426.719147,667.707764 
M384.750275,663.587280 
	C385.177155,665.467285 385.604034,667.347290 386.131775,669.671448 
	C392.422546,667.959290 398.208282,666.556702 403.885406,664.802429 
	C414.557678,661.504700 418.546997,653.596069 415.484650,642.545593 
	C414.127899,637.649658 411.309235,634.391235 406.310211,633.049438 
	C397.455200,630.672668 388.943634,633.070557 379.838837,634.523193 
	C381.479553,644.139709 383.064819,653.431152 384.750275,663.587280 
z"/>
<path fill="url(#brandFish)" opacity="1.000000" stroke="none" 
	d="
M589.637573,349.631714 
	C611.005676,348.057770 631.910339,346.349487 652.839600,345.032318 
	C664.133240,344.321564 675.467468,344.157196 686.786682,344.024750 
	C689.538818,343.992523 692.457825,344.676636 695.025818,345.711761 
	C698.603027,347.153625 702.613586,348.336090 702.125488,353.860138 
	C701.572083,360.122467 700.192261,363.288086 694.304688,364.440186 
	C683.720886,366.511322 673.019043,368.501129 662.282532,369.163361 
	C638.704224,370.617706 615.069153,371.132233 591.467285,372.243591 
	C586.251892,372.489197 584.762207,370.377319 585.151184,365.541473 
	C585.457031,361.738464 585.290894,357.872345 585.023621,354.056061 
	C584.799011,350.849091 585.878418,349.312744 589.637573,349.631714 
z"/>
<path fill="url(#brandFish)" opacity="1.000000" stroke="none" 
	d="
M578.005249,561.039124 
	C576.226624,552.653137 574.495972,544.256531 572.655701,535.884094 
	C570.839294,527.619873 568.629150,519.431641 567.113831,511.114899 
	C565.626343,502.950012 568.488770,494.345673 574.707581,486.784485 
	C577.931702,498.000519 581.100464,508.735809 584.091675,519.520386 
	C586.528076,528.304932 588.941711,537.104919 590.973145,545.987793 
	C591.743347,549.355713 593.302856,550.096252 596.444580,550.034424 
	C614.422974,549.680786 632.404724,549.501709 650.385437,549.268860 
	C651.990540,549.248047 653.596252,549.266052 656.533630,549.266052 
	C652.864868,554.653992 649.884216,559.155029 646.729065,563.530151 
	C646.261414,564.178650 644.977478,564.497253 644.058533,564.523315 
	C624.457947,565.079407 604.809387,566.705688 585.407410,562.230713 
	C583.142883,561.708435 580.905457,561.068726 578.309448,560.732666 
	C577.963501,560.981934 578.005249,561.039124 578.005249,561.039124 
z"/>
<path fill="url(#brandFish)" opacity="1.000000" stroke="none" 
	d="
M577.932739,560.964478 
	C591.387939,571.491821 604.806152,582.125488 618.414734,592.509705 
	C621.284729,594.699707 621.876099,596.421997 619.786743,599.403503 
	C617.705811,602.372803 616.023560,605.621582 613.720642,609.498413 
	C586.528748,588.697815 559.681396,568.160706 532.456482,547.334900 
	C535.268616,542.809265 537.865356,538.630371 540.940247,533.682007 
	C553.254578,542.843689 565.317505,551.818420 577.692810,560.916138 
	C578.005249,561.039124 577.963501,560.981934 577.932739,560.964478 
z"/>
<path fill="url(#brandFish)" opacity="1.000000" stroke="none" 
	d="
M219.731110,51.833435 
	C224.105225,49.760479 228.128525,47.823734 232.086472,45.918446 
	C239.660019,55.848660 239.310623,71.369926 230.911255,85.423874 
	C230.356918,82.903946 229.655670,81.100517 229.611298,79.281075 
	C229.388687,70.151321 224.307785,63.469837 218.672287,57.050743 
	C216.880325,55.009640 215.852142,53.207195 219.731110,51.833435 
z"/>
<path fill="url(#brandFish)" opacity="1.000000" stroke="none" 
	d="
M300.310608,289.321533 
	C301.518372,288.201874 302.481934,287.332764 304.297699,285.695007 
	C304.913574,291.816071 305.440247,297.050171 306.072479,303.333466 
	C300.763519,301.920990 296.434509,300.769196 290.962677,299.313354 
	C294.503021,295.525085 297.284729,292.548584 300.310608,289.321533 
z"/>
</svg>
