<svg xmlns="http://www.w3.org/2000/svg" width="512" height="512" viewBox="0 0 512 512">
  <rect width="512" height="512" rx="102.4" ry="102.4" fill="#007BFF"/>
  <g transform="rotate(-8.0,256.0,256.0) translate(96.433,345.954) scale(0.29670,-0.29670)">
    <path d="M82.07489013671875 -180V-63.65374755859375H229.2105712890625Q278.92510986328125 -63.65374755859375 306.1123352050781 -36.5889892578125Q333.299560546875 -9.52423095703125 333.299560546875 39.1903076171875V434.0687255859375H112.07489013671875V550H458.40087890625V36.26519775390625Q458.40087890625 -63.659912109375 398.40087890625 -121.8299560546875Q338.40087890625 -180 235.64581298828125 -180ZM390.8502197265625 641.979736328125Q353.1700439453125 641.979736328125 330.9524230957031 661.3476824079241Q308.73480224609375 680.7156284877232 308.73480224609375 713.7550659179688Q308.73480224609375 747.2651977539062 330.9524230957031 766.8127746582031Q353.1700439453125 786.3603515625 390.8502197265625 786.3603515625Q428.5303955078125 786.3603515625 450.7480163574219 766.8127746582031Q472.96563720703125 747.2651977539062 472.96563720703125 713.7550659179688Q472.96563720703125 680.7156284877232 450.7480163574219 661.3476824079241Q428.5303955078125 641.979736328125 390.8502197265625 641.979736328125ZM900 -10Q857.31982421875 -10.0 831.8947143554688 15.217620849609375Q806.4696044921875 40.43524169921875 806.4696044921875 82.700439453125Q806.4696044921875 126.380615234375 831.8947143554688 151.720703125Q857.31982421875 177.060791015625 900.0 177.060791015625Q943.2651977539062 177.060791015625 968.3977966308594 151.720703125Q993.5303955078125 126.380615234375 993.5303955078125 82.700439453125Q993.5303955078125 40.43524169921875 968.3977966308594 15.217620849609375Q943.2651977539062 -10.0 900 -10Z" fill="#FFFFFF"/>
  </g>
</svg>
